<svg width="18" height="18" viewBox="0 0 18 18" fill="none" xmlns="http://www.w3.org/2000/svg">
<circle cx="9" cy="9" r="9" fill="#9393F9"/>
<path d="M7.24774 4.95007H6.25266C5.53333 4.95007 4.9502 5.5332 4.9502 6.25253V7.24761C4.9502 7.96694 5.53333 8.55007 6.25266 8.55007H7.24774C7.96706 8.55007 8.5502 7.96694 8.5502 7.24761V6.25253C8.5502 5.5332 7.96706 4.95007 7.24774 4.95007Z" fill="white"/>
<path d="M7.24774 9.44995H6.25266C5.53333 9.44995 4.9502 10.0331 4.9502 10.7524V11.7475C4.9502 12.4668 5.53333 13.05 6.25266 13.05H7.24774C7.96706 13.05 8.5502 12.4668 8.5502 11.7475V10.7524C8.5502 10.0331 7.96706 9.44995 7.24774 9.44995Z" fill="white"/>
<path d="M11.7477 4.95007H10.7527C10.0333 4.95007 9.4502 5.5332 9.4502 6.25253V7.24761C9.4502 7.96694 10.0333 8.55007 10.7527 8.55007H11.7477C12.4671 8.55007 13.0502 7.96694 13.0502 7.24761V6.25253C13.0502 5.5332 12.4671 4.95007 11.7477 4.95007Z" fill="white"/>
<path d="M11.7477 9.44995H10.7527C10.0333 9.44995 9.4502 10.0331 9.4502 10.7524V11.7475C9.4502 12.4668 10.0333 13.05 10.7527 13.05H11.7477C12.4671 13.05 13.0502 12.4668 13.0502 11.7475V10.7524C13.0502 10.0331 12.4671 9.44995 11.7477 9.44995Z" fill="white"/>
</svg>
