<?xml version="1.0" encoding="utf-8"?>

<!-- Uploaded to: SVG Repo, www.svgrepo.com, Generator: SVG Repo Mixer Tools -->
<svg version="1.1" id="Uploaded to svgrepo.com" xmlns="http://www.w3.org/2000/svg" xmlns:xlink="http://www.w3.org/1999/xlink" 
	 width="50px" height="50px" viewBox="0 0 32 32" xml:space="preserve">
<style type="text/css">
	.open_een{fill:#989898;}
</style>
<g>
	<g>
		<path class="open_een" d="M12.5,9C12.776,9,13,8.776,13,8.5v-6C13,2.224,12.776,2,12.5,2S12,2.224,12,2.5v6
			C12,8.776,12.224,9,12.5,9z" />
		<path class="open_een" d="M9.5,9C9.776,9,10,8.776,10,8.5v-6C10,2.224,9.776,2,9.5,2S9,2.224,9,2.5v6C9,8.776,9.224,9,9.5,9z"/>
		<path class="open_een" d="M15.5,2C15.224,2,15,2.224,15,2.5V9c0,1.693-1.071,3.208-2.666,3.772
			c-0.249,0.088-0.38,0.354-0.309,0.605C12.014,13.418,12,13.457,12,13.5V28c0,0.551-0.449,1-1,1s-1-0.449-1-1V13.5
			c0-0.038-0.014-0.071-0.021-0.106c0.08-0.255-0.053-0.53-0.308-0.62C8.073,12.211,7,10.694,7,9V2.5C7,2.224,6.776,2,6.5,2
			S6,2.224,6,2.5V9c0,1.993,1.196,3.776,3,4.567V28c0,1.103,0.897,2,2,2s2-0.897,2-2V13.567c1.804-0.791,3-2.574,3-4.567V2.5
			C16,2.224,15.776,2,15.5,2z" />
		<path class="open_een" d="M22.852,2c-1.021,0-1.907,0.727-2.107,1.727L18.488,15.01c-0.147,0.737,0.042,1.494,0.518,2.075
			S20.187,18,20.939,18H21.5c0.276,0,0.5-0.224,0.5-0.5S21.776,17,21.5,17h-0.561c-0.451,0-0.874-0.2-1.16-0.549
			c-0.286-0.349-0.399-0.802-0.311-1.245l2.256-11.283C21.832,3.388,22.306,3,22.852,3C23.485,3,24,3.515,24,4.148V28
			c0,0.551-0.449,1-1,1s-1-0.449-1-1v-7.5c0-0.276-0.224-0.5-0.5-0.5S21,20.224,21,20.5V28c0,1.103,0.897,2,2,2s2-0.897,2-2V4.148
			C25,2.964,24.036,2,22.852,2z" />
	</g>
	<g>
		<path class="open_een" d="M12.5,9C12.776,9,13,8.776,13,8.5v-6C13,2.224,12.776,2,12.5,2S12,2.224,12,2.5v6
			C12,8.776,12.224,9,12.5,9z" />
		<path class="open_een" d="M9.5,9C9.776,9,10,8.776,10,8.5v-6C10,2.224,9.776,2,9.5,2S9,2.224,9,2.5v6C9,8.776,9.224,9,9.5,9z"/>
		<path class="open_een" d="M15.5,2C15.224,2,15,2.224,15,2.5V9c0,1.693-1.071,3.208-2.666,3.772
			c-0.249,0.088-0.38,0.354-0.309,0.605C12.014,13.418,12,13.457,12,13.5V28c0,0.551-0.449,1-1,1s-1-0.449-1-1V13.5
			c0-0.038-0.014-0.071-0.021-0.106c0.08-0.255-0.053-0.53-0.308-0.62C8.073,12.211,7,10.694,7,9V2.5C7,2.224,6.776,2,6.5,2
			S6,2.224,6,2.5V9c0,1.993,1.196,3.776,3,4.567V28c0,1.103,0.897,2,2,2s2-0.897,2-2V13.567c1.804-0.791,3-2.574,3-4.567V2.5
			C16,2.224,15.776,2,15.5,2z" />
		<path class="open_een" d="M22.852,2c-1.021,0-1.907,0.727-2.107,1.727L18.488,15.01c-0.147,0.737,0.042,1.494,0.518,2.075
			S20.187,18,20.939,18H21.5c0.276,0,0.5-0.224,0.5-0.5S21.776,17,21.5,17h-0.561c-0.451,0-0.874-0.2-1.16-0.549
			c-0.286-0.349-0.399-0.802-0.311-1.245l2.256-11.283C21.832,3.388,22.306,3,22.852,3C23.485,3,24,3.515,24,4.148V28
			c0,0.551-0.449,1-1,1s-1-0.449-1-1v-7.5c0-0.276-0.224-0.5-0.5-0.5S21,20.224,21,20.5V28c0,1.103,0.897,2,2,2s2-0.897,2-2V4.148
			C25,2.964,24.036,2,22.852,2z" />
	</g>
</g>
</svg>