<svg width="20" height="20" viewBox="0 0 20 20" fill="none" xmlns="http://www.w3.org/2000/svg">
<path fill-rule="evenodd" clip-rule="evenodd" d="M12.8842 11.6858C12.02 12.1933 11.0483 12.5 9.99999 12.5C8.95166 12.5 7.97999 12.1933 7.11582 11.6858C4.07832 11.885 1.66666 14.4133 1.66666 17.5V18.9417L2.24582 19.1275C2.35749 19.1625 5.03166 20 9.99999 20C14.9683 20 17.6425 19.1625 17.7542 19.1275L18.3333 18.9417V17.5C18.3333 14.4133 15.9217 11.885 12.8842 11.6858Z"/>
<path fill-rule="evenodd" clip-rule="evenodd" d="M10 10.8333C12.8158 10.8333 15 7.6975 15 5C15 2.2425 12.7575 0 10 0C7.2425 0 5 2.2425 5 5C5 7.6975 7.18417 10.8333 10 10.8333Z"/>
</svg>
