<?xml version="1.0" encoding="utf-8"?>
<!-- Generator: Adobe Illustrator 25.0.0, SVG Export Plug-In . SVG Version: 6.00 Build 0)  -->
<svg version="1.2" baseProfile="tiny" id="Camada_1"
	 xmlns="http://www.w3.org/2000/svg" xmlns:xlink="http://www.w3.org/1999/xlink" x="0px" y="0px" viewBox="0 0 300 300"
	 overflow="visible" xml:space="preserve" fill="none" stroke="#000">

	<path d="M288.85,251.62c-4.33,9.39-11.78,12.12-21.86,12.08c-78.06-0.27-156.13-0.15-234.19-0.15c-1.63,0-3.25,0.03-4.88-0.02
		c-9.04-0.29-15.8-6.24-16.68-14.66c-0.84-8.11,4.38-15.18,12.96-17.52c0.87-0.24,1.77-0.35,2.44-0.47
		c5.76-65.15,41.91-103.2,104.69-118.49c-5.24-11.76-4.11-22.54,7.81-30.15c7.8-4.99,17.64-3.91,24.73,2.06
		c8.01,6.74,9.52,15.62,4.73,28.08c62.32,14.9,98.64,52.8,104.77,118.42c7.24,0.57,12.11,5.42,15.49,12.14
		C288.85,245.83,288.85,248.72,288.85,251.62z M261.95,230.78c-2.33-43.41-22.28-75.53-60.02-95.06
		c-41.04-21.25-81.56-17.64-118.95,9.54c-28.65,20.83-43.5,49.62-44.79,85.53C113.01,230.78,187.05,230.78,261.95,230.78z
		 M149.91,252.7c39.39,0,78.78,0,118.16,0c1.62,0,3.67,0.55,4.78-0.22c1.98-1.37,4.45-3.42,4.69-5.43c0.18-1.5-2.65-3.66-4.52-4.96
		c-0.99-0.69-2.81-0.22-4.25-0.22c-79.14-0.01-158.27-0.01-237.41,0c-1.44,0-3.31-0.5-4.25,0.21c-1.94,1.45-4.45,3.44-4.69,5.45
		c-0.18,1.5,2.62,3.73,4.53,4.95c1.17,0.75,3.17,0.24,4.79,0.24C71.13,252.7,110.52,252.7,149.91,252.7z M150.41,90.07
		c-5.6-0.26-10.91,4.65-11.18,10.34c-0.26,5.6,4.65,10.91,10.34,11.18c5.6,0.26,10.91-4.65,11.18-10.34
		C161.01,95.65,156.1,90.33,150.41,90.07z" fill="#000"/>
	<path d="M288.85,107.33c-0.8,0.7-1.49,1.68-2.42,2.05c-9.65,3.78-16.35,10.22-20.31,20.03c-1.6,3.97-6.09,3.64-8.86,0.19
		c-0.56-0.69-1.09-1.49-1.35-2.32c-2.64-8.33-8.43-13.32-16.39-16.54c-2.04-0.83-4.3-3.77-4.43-5.86c-0.11-1.72,2.45-4.56,4.42-5.3
		c8.33-3.12,13.38-8.86,16.78-16.95c2.46-5.86,8.18-6.29,10.45-0.81c3.67,8.88,9.23,15.12,18.37,18.22
		c1.42,0.48,2.51,1.95,3.75,2.96C288.85,104.44,288.85,105.89,288.85,107.33z M263.43,111.48c-1.16-0.1-2.33-0.2-3.49-0.3
		c2.76-2.61,5.53-5.22,8.29-7.83c-0.08,1.2-0.15,2.41-0.23,3.61c-2.59-2.96-5.18-5.91-7.78-8.87c1.1,0.35,2.19,0.7,3.29,1.05
		c-2.76,2.61-5.53,5.22-8.29,7.82c0.3-1.44,0.61-2.87,0.91-4.31C258.57,105.6,261,108.54,263.43,111.48z" fill="#000"/>
	<path d="M49.29,113.29c-2.56-2.92-4.71-4.44-5.56-6.5c-2.13-5.16-3.87-10.5-5.38-15.87c-0.97-3.46-2.69-5.46-6.27-6.43
		c-5.39-1.46-10.78-3.13-15.85-5.41c-2.07-0.93-4.41-3.59-4.59-5.65c-0.14-1.61,2.53-4.26,4.52-5.1c5.47-2.31,11.34-3.64,16.83-5.91
		c1.99-0.82,4.02-2.9,4.86-4.9c2.15-5.14,3.31-10.71,5.54-15.8c1.01-2.31,3.58-5.32,5.56-5.41c1.88-0.09,4.75,2.86,5.73,5.11
		c2.8,6.41,3.21,14.76,7.67,19.29c4.3,4.37,12.58,4.66,18.86,7.35c2.28,0.98,5.27,3.68,5.29,5.62c0.02,1.92-2.96,4.66-5.23,5.66
		c-6.41,2.8-14.74,3.25-19.26,7.72c-4.36,4.32-4.71,12.57-7.25,18.92C53.8,108.33,51.64,110.22,49.29,113.29z M49.16,87.51
		c1.3-8.2,6.46-11.96,13.91-13.98c-8.37-1.19-12.13-6.35-14.14-13.8c-1.19,8.37-6.35,12.13-13.89,14.24
		C43.46,75.05,47.33,79.88,49.16,87.51z" fill="#000"/>
        <g>
	<path d="M261.95,230.78c-74.9,0-148.94,0-223.76,0c1.29-35.91,16.14-64.7,44.79-85.53
		c37.38-27.17,77.9-30.79,118.95-9.54C239.67,155.25,259.62,187.37,261.95,230.78z M242.95,193.91c-0.69-2.06-0.94-3.31-1.49-4.41
		c-12.31-24.45-32.27-40.11-57.36-49.84c-3.2-1.24-6.36-0.43-6.9,2.84c-0.35,2.14,1.38,5.09,3.01,6.95
		c1.28,1.46,3.87,1.74,5.83,2.65c16.9,7.77,31.09,18.82,41.4,34.49c1.98,3,3.24,6.54,5.54,9.23c1.22,1.43,4.09,2.35,5.97,2.03
		C240.53,197.57,241.74,195.18,242.95,193.91z M167.01,139.87c-0.04-0.75-0.07-1.5-0.11-2.26c-1.98-1.38-4.22-4.13-5.87-3.81
		c-2.09,0.41-3.7,3.3-5.52,5.13c1.73,1.73,3.41,4.76,5.21,4.84C162.76,143.86,164.91,141.29,167.01,139.87z"/>
	<path d="M149.91,252.7c-39.39,0-78.78,0-118.16,0c-1.62,0-3.62,0.51-4.79-0.24c-1.91-1.22-4.7-3.45-4.53-4.95
		c0.24-2.01,2.75-3.99,4.69-5.45c0.94-0.7,2.8-0.21,4.25-0.21c79.14,0,158.27,0,237.41,0c1.44,0,3.26-0.47,4.25,0.22
		c1.88,1.31,4.7,3.47,4.52,4.96c-0.24,2.01-2.71,4.06-4.69,5.43c-1.11,0.77-3.16,0.22-4.78,0.22
		C228.69,252.7,189.3,252.7,149.91,252.7z"/>
	<path d="M150.41,90.07c5.69,0.27,10.6,5.58,10.34,11.18c-0.27,5.69-5.58,10.6-11.18,10.34
		c-5.69-0.27-10.6-5.58-10.34-11.18C139.5,94.72,144.81,89.8,150.41,90.07z"/>
	<path d="M263.43,111.48c-2.43-2.94-4.86-5.88-7.29-8.82c-0.3,1.44-0.61,2.87-0.91,4.31
		c2.76-2.61,5.53-5.22,8.29-7.82c-1.1-0.35-2.19-0.7-3.29-1.05c2.59,2.96,5.18,5.91,7.78,8.87c0.08-1.2,0.15-2.41,0.23-3.61
		c-2.76,2.61-5.53,5.22-8.29,7.83C261.1,111.29,262.26,111.38,263.43,111.48z"/>
	<path d="M49.16,87.51c-1.82-7.64-5.7-12.46-14.12-13.54c7.54-2.11,12.7-5.87,13.89-14.24
		c2.01,7.45,5.77,12.61,14.14,13.8C55.62,75.55,50.46,79.31,49.16,87.51z"/>
</g>
    <path  fill="#000" d="M242.95,193.91c-1.2,1.27-2.42,3.66-4,3.93c-1.88,0.32-4.75-0.61-5.97-2.03c-2.3-2.69-3.56-6.23-5.54-9.23
		c-10.31-15.66-24.5-26.71-41.4-34.49c-1.96-0.9-4.55-1.19-5.83-2.65c-1.63-1.85-3.36-4.8-3.01-6.95c0.53-3.27,3.7-4.08,6.9-2.84
		c25.09,9.74,45.05,25.39,57.36,49.84C242.01,190.6,242.26,191.85,242.95,193.91z"/>
	<path  fill="#000" d="M167.01,139.87c-2.1,1.42-4.25,3.99-6.28,3.9c-1.8-0.08-3.48-3.11-5.21-4.84c1.82-1.82,3.43-4.72,5.52-5.13
		c1.65-0.32,3.89,2.42,5.87,3.81C166.94,138.37,166.97,139.12,167.01,139.87z"/>
</svg>
