<svg width="19" height="24" viewBox="0 0 19 24" fill="none" xmlns="http://www.w3.org/2000/svg">
<path fill-rule="evenodd" clip-rule="evenodd" d="M18.8626 18.4815C17.7365 16.5222 17.1281 14.2816 17.1003 11.9916V8.0024C17.1003 3.5828 13.6975 0 9.5 0C5.30248 0 1.89971 3.5828 1.89971 8.0024V11.9856C1.87284 14.2776 1.26438 16.5204 0.137394 18.4815C-0.0402295 18.7904 -0.0460095 19.176 0.12227 19.4906C0.29055 19.8052 0.606773 19.9999 0.949675 20H18.0503C18.3932 19.9999 18.7094 19.8052 18.8777 19.4906C19.046 19.176 19.0402 18.7904 18.8626 18.4815Z" fill="#2E2B5E"/>
<path fill-rule="evenodd" clip-rule="evenodd" d="M11.069 23.738C11.97 23.2828 12.679 22.2775 13 21H7C7.2835 22.1282 7.87148 23.0504 8.63457 23.5639C9.39766 24.0774 10.2734 24.14 11.069 23.738Z" fill="#2E2B5E"/>
</svg>
