<?xml version="1.0" ?>

<!-- Uploaded to: SVG Repo, www.svgrepo.com, Generator: SVG Repo Mixer Tools -->
<svg width="25px" height="25px" viewBox="0 0 32 32" id="svg5" version="1.1" xmlns="http://www.w3.org/2000/svg" xmlns:svg="http://www.w3.org/2000/svg">

<defs id="defs2"/>

<g id="layer1" transform="translate(-252,-244)">

<path d="m 261,268.00586 c -1.64501,0 -3,1.35499 -3,3 0,1.64501 1.35499,3 3,3 1.64501,0 3,-1.35499 3,-3 0,-1.64501 -1.35499,-3 -3,-3 z m 0,2 c 0.56413,0 1,0.43587 1,1 0,0.56413 -0.43587,1 -1,1 -0.56413,0 -1,-0.43587 -1,-1 0,-0.56413 0.43587,-1 1,-1 z" id="circle1799" style="color:#FFF;fill:#FFF;fill-rule:evenodd;stroke-linecap:round;stroke-linejoin:round;stroke-miterlimit:4.1;-inkscape-stroke:none"/>

<path d="m 275,268.00586 c -1.64501,0 -3,1.35499 -3,3 0,1.64501 1.35499,3 3,3 1.64501,0 3,-1.35499 3,-3 0,-1.64501 -1.35499,-3 -3,-3 z m 0,2 c 0.56413,0 1,0.43587 1,1 0,0.56413 -0.43587,1 -1,1 -0.56413,0 -1,-0.43587 -1,-1 0,-0.56413 0.43587,-1 1,-1 z" id="circle1801" style="color:#FFF;fill:#FFF;fill-rule:evenodd;stroke-linecap:round;stroke-linejoin:round;stroke-miterlimit:4.1;-inkscape-stroke:none"/>

<path d="m 255,246.00586 a 1,1 0 0 0 -1,1 1,1 0 0 0 1,1 h 1.17969 l 2.65039,13.24219 C 257.7593,261.70823 257,262.77542 257,264.00586 c 0,1.6447 1.3553,3 3,3 h 17 a 1,1 0 0 0 1,-1 1,1 0 0 0 -1,-1 h -17 c -0.5713,0 -1,-0.4287 -1,-1 0,-0.5713 0.4287,-1 1,-1 h 15 A 1,1 0 0 0 275.0293,263 H 278 a 1.0001,1.0001 0 0 0 0.98828,-0.84375 l 0.93945,-5.96875 a 1,1 0 0 0 -0.83203,-1.14453 1,1 0 0 0 -1.14453,0.83398 L 277.14453,261 h -16.32422 l -1.80078,-8.99414 h 12.08399 a 1,1 0 0 0 1,-1 1,1 0 0 0 -1,-1 h -12.48438 l -0.63867,-3.19531 A 1.0001,1.0001 0 0 0 257,246.00586 Z" id="path1803" style="color:#FFF;fill:#FFF;fill-rule:evenodd;stroke-linecap:round;stroke-linejoin:round;stroke-miterlimit:4.1;-inkscape-stroke:none"/>

<path d="m 276,246.00586 c -3.30186,0 -6,2.69814 -6,6 0,3.30186 2.69814,6 6,6 3.30186,0 6,-2.69814 6,-6 0,-3.30186 -2.69814,-6 -6,-6 z m 0,2 c 2.22098,0 4,1.77902 4,4 0,2.22098 -1.77902,4 -4,4 -2.22098,0 -4,-1.77902 -4,-4 0,-2.22098 1.77902,-4 4,-4 z" id="circle1805" style="color:#FFF;fill:#FFF;fill-rule:evenodd;stroke-linecap:round;stroke-linejoin:round;stroke-miterlimit:4.1;-inkscape-stroke:none"/>

<path d="m 276,249.00586 a 1,1 0 0 0 -1,1 v 1 h -1 a 1,1 0 0 0 -1,1 1,1 0 0 0 1,1 h 1 v 1 a 1,1 0 0 0 1,1 1,1 0 0 0 1,-1 v -1 h 1 a 1,1 0 0 0 1,-1 1,1 0 0 0 -1,-1 h -1 v -1 a 1,1 0 0 0 -1,-1 z" id="path1807" style="color:#FFF;fill:#FFF;fill-rule:evenodd;stroke-linecap:round;stroke-linejoin:round;stroke-miterlimit:4.1;-inkscape-stroke:none"/>

</g>

</svg>