<svg width="38" height="46" viewBox="0 0 38 46" fill="none" xmlns="http://www.w3.org/2000/svg">
<path d="M7.59259 32.6H8.79259V41H7.59259V32.6ZM2.76859 41H1.56859V32.6H2.76859V41ZM7.70059 37.256H2.64859V36.212H7.70059V37.256ZM13.8629 41.072C13.2229 41.072 12.6549 40.932 12.1589 40.652C11.6629 40.372 11.2709 39.988 10.9829 39.5C10.6949 39.004 10.5509 38.444 10.5509 37.82C10.5509 37.188 10.6949 36.628 10.9829 36.14C11.2709 35.652 11.6629 35.272 12.1589 35C12.6549 34.72 13.2229 34.58 13.8629 34.58C14.4949 34.58 15.0589 34.72 15.5549 35C16.0589 35.272 16.4509 35.652 16.7309 36.14C17.0189 36.62 17.1629 37.18 17.1629 37.82C17.1629 38.452 17.0189 39.012 16.7309 39.5C16.4509 39.988 16.0589 40.372 15.5549 40.652C15.0589 40.932 14.4949 41.072 13.8629 41.072ZM13.8629 40.064C14.2709 40.064 14.6349 39.972 14.9549 39.788C15.2829 39.604 15.5389 39.344 15.7229 39.008C15.9069 38.664 15.9989 38.268 15.9989 37.82C15.9989 37.364 15.9069 36.972 15.7229 36.644C15.5389 36.308 15.2829 36.048 14.9549 35.864C14.6349 35.68 14.2709 35.588 13.8629 35.588C13.4549 35.588 13.0909 35.68 12.7709 35.864C12.4509 36.048 12.1949 36.308 12.0029 36.644C11.8109 36.972 11.7149 37.364 11.7149 37.82C11.7149 38.268 11.8109 38.664 12.0029 39.008C12.1949 39.344 12.4509 39.604 12.7709 39.788C13.0909 39.972 13.4549 40.064 13.8629 40.064ZM26.7121 34.58C27.2241 34.58 27.6761 34.68 28.0681 34.88C28.4601 35.08 28.7641 35.384 28.9801 35.792C29.2041 36.2 29.3161 36.716 29.3161 37.34V41H28.1641V37.472C28.1641 36.856 28.0201 36.392 27.7321 36.08C27.4441 35.768 27.0401 35.612 26.5201 35.612C26.1361 35.612 25.8001 35.692 25.5121 35.852C25.2241 36.012 25.0001 36.248 24.8401 36.56C24.6881 36.872 24.6121 37.26 24.6121 37.724V41H23.4601V37.472C23.4601 36.856 23.3161 36.392 23.0281 36.08C22.7481 35.768 22.3441 35.612 21.8161 35.612C21.4401 35.612 21.1081 35.692 20.8201 35.852C20.5321 36.012 20.3081 36.248 20.1481 36.56C19.9881 36.872 19.9081 37.26 19.9081 37.724V41H18.7561V34.64H19.8601V36.332L19.6801 35.9C19.8801 35.484 20.1881 35.16 20.6041 34.928C21.0201 34.696 21.5041 34.58 22.0561 34.58C22.6641 34.58 23.1881 34.732 23.6281 35.036C24.0681 35.332 24.3561 35.784 24.4921 36.392L24.0241 36.2C24.2161 35.712 24.5521 35.32 25.0321 35.024C25.5121 34.728 26.0721 34.58 26.7121 34.58ZM34.2678 41.072C33.5878 41.072 32.9878 40.932 32.4678 40.652C31.9558 40.372 31.5558 39.988 31.2678 39.5C30.9878 39.012 30.8478 38.452 30.8478 37.82C30.8478 37.188 30.9838 36.628 31.2558 36.14C31.5358 35.652 31.9158 35.272 32.3958 35C32.8838 34.72 33.4318 34.58 34.0398 34.58C34.6558 34.58 35.1998 34.716 35.6718 34.988C36.1438 35.26 36.5118 35.644 36.7758 36.14C37.0478 36.628 37.1838 37.2 37.1838 37.856C37.1838 37.904 37.1798 37.96 37.1718 38.024C37.1718 38.088 37.1678 38.148 37.1598 38.204H31.7478V37.376H36.5598L36.0918 37.664C36.0998 37.256 36.0158 36.892 35.8398 36.572C35.6638 36.252 35.4198 36.004 35.1078 35.828C34.8038 35.644 34.4478 35.552 34.0398 35.552C33.6398 35.552 33.2838 35.644 32.9718 35.828C32.6598 36.004 32.4158 36.256 32.2398 36.584C32.0638 36.904 31.9758 37.272 31.9758 37.688V37.88C31.9758 38.304 32.0718 38.684 32.2638 39.02C32.4638 39.348 32.7398 39.604 33.0918 39.788C33.4438 39.972 33.8478 40.064 34.3038 40.064C34.6798 40.064 35.0198 40 35.3238 39.872C35.6358 39.744 35.9078 39.552 36.1398 39.296L36.7758 40.04C36.4878 40.376 36.1278 40.632 35.6958 40.808C35.2718 40.984 34.7958 41.072 34.2678 41.072Z" fill="#F3484F"/>
<path fill-rule="evenodd" clip-rule="evenodd" d="M28.8808 4.76957L26.3808 0.421739C26.2302 0.160121 25.9592 5.80463e-05 25.6667 0H12.3333C12.0409 5.80463e-05 11.7698 0.160121 11.6192 0.421739L9.11917 4.76957C9.04125 4.90479 9.00005 5.0596 9.00001 5.21739C8.99678 7.134 10.4824 8.69086 12.3192 8.69565H12.3258C13.149 8.69784 13.9434 8.38009 14.5542 7.80435C15.8158 8.9942 17.7359 8.9942 18.9975 7.80435C20.2598 8.99683 22.1827 8.99683 23.445 7.80435C24.4222 8.72426 25.8273 8.95653 27.0291 8.39683C28.231 7.83714 29.0036 6.59071 29 5.21739C29 5.0596 28.9588 4.90479 28.8808 4.76957Z" fill="#F3484F"/>
<path fill-rule="evenodd" clip-rule="evenodd" d="M25.68 10.4348C24.9054 10.4354 24.1412 10.2485 23.4475 9.8887L23.435 9.89479C22.2523 10.5101 20.8832 10.6071 19.6317 10.1644C19.4149 10.0883 19.2033 9.99709 18.9983 9.89131L18.9892 9.89566C17.8069 10.5114 16.4377 10.6081 15.1867 10.1644C14.9702 10.0883 14.7589 9.99708 14.5542 9.89131C13.8617 10.2501 13.0989 10.4361 12.3258 10.4348C12.049 10.432 11.7728 10.4059 11.5 10.3565V19.1304C11.5 19.6107 11.8731 20 12.3333 20H17.3333V14.7826H20.6667V20H25.6667C26.1269 20 26.5 19.6107 26.5 19.1304V10.3531C26.2293 10.4037 25.955 10.431 25.68 10.4348Z" fill="#F3484F"/>
</svg>
