<svg width="89" height="23" viewBox="0 0 89 23" fill="none" xmlns="http://www.w3.org/2000/svg">
<g clip-path="url(#clip0_65_1550)">
<path d="M11.7994 -0.000167847C14.9572 0.00601578 17.9833 1.22741 20.2133 3.39579C20.2857 3.46171 20.3437 3.54105 20.3839 3.62913C20.424 3.7172 20.4455 3.8122 20.4471 3.90848C20.4486 4.00477 20.4302 4.10038 20.393 4.18963C20.3557 4.27889 20.3003 4.35997 20.2301 4.42806C20.1599 4.49615 20.0763 4.54987 19.9843 4.58602C19.8922 4.62217 19.7937 4.64001 19.6944 4.6385C19.5951 4.63698 19.4972 4.61613 19.4063 4.57718C19.3155 4.53824 19.2337 4.48199 19.1658 4.41179C17.211 2.51169 14.5586 1.44166 11.791 1.43664C9.00104 1.42193 6.39842 2.44822 4.46105 4.32644C2.52369 6.20467 1.46474 8.73031 1.48143 11.4362C1.48963 14.1195 2.59236 16.6907 4.54876 18.5882C6.50516 20.4856 9.15626 21.5551 11.923 21.563C14.6948 21.5777 17.2815 20.5647 19.2143 18.7093C19.4204 18.5071 19.5353 18.2338 19.5337 17.9496C19.532 17.6653 19.414 17.3933 19.2056 17.1934C18.9972 16.9935 18.7154 16.8821 18.4223 16.8836C18.1291 16.8852 17.8487 16.9997 17.6426 17.2018C17.6235 17.2202 17.6035 17.2376 17.5826 17.2541C16.0835 18.6166 14.0995 19.3647 12.0451 19.342C9.8933 19.3352 7.83161 18.5031 6.31009 17.0273C4.78857 15.5515 3.93079 13.5519 3.92399 11.4649C3.91107 10.4363 4.11041 9.41563 4.51029 8.46289C4.91017 7.51015 5.50251 6.64462 6.25244 5.91722C7.00238 5.18982 7.89476 4.61526 8.87707 4.22734C9.85938 3.83943 10.9118 3.646 11.9723 3.65844C14.1247 3.6628 16.1873 4.49551 17.707 5.97367C17.9521 6.20335 18.1475 6.47806 18.282 6.78177C18.4164 7.08548 18.4872 7.41212 18.4901 7.74262C18.493 8.07313 18.428 8.40089 18.2989 8.70678C18.1699 9.01268 17.9793 9.29059 17.7383 9.5243C17.4973 9.75801 17.2108 9.94284 16.8954 10.068C16.58 10.1932 16.242 10.2562 15.9013 10.2534C15.5605 10.2506 15.2237 10.182 14.9106 10.0516C14.5974 9.92119 14.3142 9.73163 14.0773 9.49396C14.0629 9.47925 14.0493 9.4638 14.0356 9.44835C14.022 9.4329 14.0037 9.42186 13.9886 9.40788C13.574 8.99926 13.0437 8.71927 12.4648 8.60343C11.8859 8.4876 11.2846 8.54114 10.7372 8.75726C10.1897 8.97338 9.72078 9.34235 9.38988 9.81735C9.05897 10.2923 8.881 10.852 8.87855 11.4252C8.8761 11.9985 9.04927 12.5595 9.37609 13.0371C9.70292 13.5148 10.1687 13.8875 10.7143 14.108C11.2598 14.3286 11.8607 14.387 12.4405 14.2758C13.0204 14.1646 13.5531 13.8889 13.9711 13.4836C14.1115 13.3558 14.2976 13.286 14.4901 13.289C14.6826 13.2919 14.8663 13.3674 15.0024 13.4994C15.1386 13.6314 15.2164 13.8096 15.2194 13.9963C15.2225 14.183 15.1505 14.3635 15.0187 14.4996C14.1853 15.3103 13.0544 15.7672 11.8741 15.7702C10.6938 15.7733 9.56045 15.3221 8.72265 14.5158C6.99085 12.837 6.9992 10.0972 8.74009 8.40955C10.481 6.72186 13.3059 6.71304 15.0361 8.39263C15.0513 8.40734 15.065 8.42205 15.0786 8.4375C15.0948 8.45046 15.1102 8.46421 15.1249 8.4787C15.2246 8.58081 15.3445 8.6625 15.4773 8.71894C15.6101 8.77539 15.7533 8.80545 15.8983 8.80735C16.0433 8.80926 16.1872 8.78296 16.3216 8.73001C16.4559 8.67707 16.578 8.59855 16.6805 8.4991C16.783 8.39965 16.864 8.28127 16.9186 8.15097C16.9732 8.02067 17.0003 7.88108 16.9983 7.74044C16.9964 7.59981 16.9654 7.46098 16.9072 7.33215C16.849 7.20333 16.7647 7.08712 16.6595 6.99039C15.4152 5.78012 13.7262 5.0987 11.964 5.09598C11.0998 5.0851 10.2421 5.24222 9.44149 5.55807C8.64092 5.87392 7.91369 6.34211 7.30273 6.935C6.69177 7.52788 6.20945 8.23346 5.88424 9.01008C5.55904 9.78671 5.39753 10.6186 5.40926 11.4568C5.41386 13.1655 6.11573 14.803 7.36146 16.0113C8.60718 17.2196 10.2955 17.9005 12.0573 17.9051C12.9218 17.9155 13.7797 17.7582 14.5806 17.4423C15.3815 17.1265 16.1092 16.6585 16.7209 16.0659C16.7681 16.0204 16.8215 15.9813 16.8795 15.9497C17.3937 15.5852 18.0285 15.4173 18.6624 15.4783C19.2962 15.5392 19.8847 15.8246 20.3152 16.2799C20.7457 16.7352 20.988 17.3285 20.9958 17.9462C21.0036 18.5639 20.7763 19.1627 20.3575 19.6281C20.341 19.6483 20.3233 19.6675 20.3044 19.6855L20.2725 19.7164L20.2573 19.7311L20.2414 19.7459C18.0287 21.8595 15.0771 23.0138 11.9185 22.9969C8.76155 22.9878 5.73652 21.7679 3.5036 19.6035C1.27067 17.4392 0.0111621 14.506 -4.21405e-05 11.4443C-0.0182476 8.35437 1.19469 5.46309 3.41348 3.31119C5.63227 1.15928 8.61114 -0.0200329 11.7994 -0.000167847Z" fill="url(#paint0_linear_65_1550)"/>
</g>
<path d="M27.7304 16.096C27.0904 16.096 26.4984 15.992 25.9544 15.784C25.4184 15.568 24.9504 15.268 24.5504 14.884C24.1584 14.492 23.8504 14.036 23.6264 13.516C23.4024 12.996 23.2904 12.424 23.2904 11.8C23.2904 11.176 23.4024 10.604 23.6264 10.084C23.8504 9.564 24.1624 9.112 24.5624 8.728C24.9624 8.336 25.4304 8.036 25.9664 7.828C26.5104 7.612 27.1024 7.504 27.7424 7.504C28.3904 7.504 28.9864 7.616 29.5304 7.84C30.0824 8.056 30.5504 8.38 30.9344 8.812L30.1544 9.568C29.8344 9.232 29.4744 8.984 29.0744 8.824C28.6744 8.656 28.2464 8.572 27.7904 8.572C27.3184 8.572 26.8784 8.652 26.4704 8.812C26.0704 8.972 25.7224 9.196 25.4264 9.484C25.1304 9.772 24.8984 10.116 24.7304 10.516C24.5704 10.908 24.4904 11.336 24.4904 11.8C24.4904 12.264 24.5704 12.696 24.7304 13.096C24.8984 13.488 25.1304 13.828 25.4264 14.116C25.7224 14.404 26.0704 14.628 26.4704 14.788C26.8784 14.948 27.3184 15.028 27.7904 15.028C28.2464 15.028 28.6744 14.948 29.0744 14.788C29.4744 14.62 29.8344 14.364 30.1544 14.02L30.9344 14.776C30.5504 15.208 30.0824 15.536 29.5304 15.76C28.9864 15.984 28.3864 16.096 27.7304 16.096ZM34.9327 16.072C34.2927 16.072 33.7247 15.932 33.2287 15.652C32.7327 15.372 32.3407 14.988 32.0527 14.5C31.7647 14.004 31.6207 13.444 31.6207 12.82C31.6207 12.188 31.7647 11.628 32.0527 11.14C32.3407 10.652 32.7327 10.272 33.2287 10C33.7247 9.72 34.2927 9.58 34.9327 9.58C35.5647 9.58 36.1287 9.72 36.6247 10C37.1287 10.272 37.5207 10.652 37.8007 11.14C38.0887 11.62 38.2327 12.18 38.2327 12.82C38.2327 13.452 38.0887 14.012 37.8007 14.5C37.5207 14.988 37.1287 15.372 36.6247 15.652C36.1287 15.932 35.5647 16.072 34.9327 16.072ZM34.9327 15.064C35.3407 15.064 35.7047 14.972 36.0247 14.788C36.3527 14.604 36.6087 14.344 36.7927 14.008C36.9767 13.664 37.0687 13.268 37.0687 12.82C37.0687 12.364 36.9767 11.972 36.7927 11.644C36.6087 11.308 36.3527 11.048 36.0247 10.864C35.7047 10.68 35.3407 10.588 34.9327 10.588C34.5247 10.588 34.1607 10.68 33.8407 10.864C33.5207 11.048 33.2647 11.308 33.0727 11.644C32.8807 11.972 32.7847 12.364 32.7847 12.82C32.7847 13.268 32.8807 13.664 33.0727 14.008C33.2647 14.344 33.5207 14.604 33.8407 14.788C34.1607 14.972 34.5247 15.064 34.9327 15.064ZM47.7819 9.58C48.2939 9.58 48.7459 9.68 49.1379 9.88C49.5299 10.08 49.8339 10.384 50.0499 10.792C50.2739 11.2 50.3859 11.716 50.3859 12.34V16H49.2339V12.472C49.2339 11.856 49.0899 11.392 48.8019 11.08C48.5139 10.768 48.1099 10.612 47.5899 10.612C47.2059 10.612 46.8699 10.692 46.5819 10.852C46.2939 11.012 46.0699 11.248 45.9099 11.56C45.7579 11.872 45.6819 12.26 45.6819 12.724V16H44.5299V12.472C44.5299 11.856 44.3859 11.392 44.0979 11.08C43.8179 10.768 43.4139 10.612 42.8859 10.612C42.5099 10.612 42.1779 10.692 41.8899 10.852C41.6019 11.012 41.3779 11.248 41.2179 11.56C41.0579 11.872 40.9779 12.26 40.9779 12.724V16H39.8259V9.64H40.9299V11.332L40.7499 10.9C40.9499 10.484 41.2579 10.16 41.6739 9.928C42.0899 9.696 42.5739 9.58 43.1259 9.58C43.7339 9.58 44.2579 9.732 44.6979 10.036C45.1379 10.332 45.4259 10.784 45.5619 11.392L45.0939 11.2C45.2859 10.712 45.6219 10.32 46.1019 10.024C46.5819 9.728 47.1419 9.58 47.7819 9.58ZM56.4536 16V14.656L56.3936 14.404V12.112C56.3936 11.624 56.2496 11.248 55.9616 10.984C55.6816 10.712 55.2576 10.576 54.6896 10.576C54.3136 10.576 53.9456 10.64 53.5856 10.768C53.2256 10.888 52.9216 11.052 52.6736 11.26L52.1936 10.396C52.5216 10.132 52.9136 9.932 53.3696 9.796C53.8336 9.652 54.3176 9.58 54.8216 9.58C55.6936 9.58 56.3656 9.792 56.8376 10.216C57.3096 10.64 57.5456 11.288 57.5456 12.16V16H56.4536ZM54.3656 16.072C53.8936 16.072 53.4776 15.992 53.1176 15.832C52.7656 15.672 52.4936 15.452 52.3016 15.172C52.1096 14.884 52.0136 14.56 52.0136 14.2C52.0136 13.856 52.0936 13.544 52.2536 13.264C52.4216 12.984 52.6896 12.76 53.0576 12.592C53.4336 12.424 53.9376 12.34 54.5696 12.34H56.5856V13.168H54.6176C54.0416 13.168 53.6536 13.264 53.4536 13.456C53.2536 13.648 53.1536 13.88 53.1536 14.152C53.1536 14.464 53.2776 14.716 53.5256 14.908C53.7736 15.092 54.1176 15.184 54.5576 15.184C54.9896 15.184 55.3656 15.088 55.6856 14.896C56.0136 14.704 56.2496 14.424 56.3936 14.056L56.6216 14.848C56.4696 15.224 56.2016 15.524 55.8176 15.748C55.4336 15.964 54.9496 16.072 54.3656 16.072ZM63.0734 9.58C63.5934 9.58 64.0494 9.68 64.4414 9.88C64.8414 10.08 65.1534 10.384 65.3774 10.792C65.6014 11.2 65.7134 11.716 65.7134 12.34V16H64.5614V12.472C64.5614 11.856 64.4094 11.392 64.1054 11.08C63.8094 10.768 63.3894 10.612 62.8454 10.612C62.4374 10.612 62.0814 10.692 61.7774 10.852C61.4734 11.012 61.2374 11.248 61.0694 11.56C60.9094 11.872 60.8294 12.26 60.8294 12.724V16H59.6774V9.64H60.7814V11.356L60.6014 10.9C60.8094 10.484 61.1294 10.16 61.5614 9.928C61.9934 9.696 62.4974 9.58 63.0734 9.58ZM70.4734 16.072C69.8574 16.072 69.3054 15.936 68.8174 15.664C68.3374 15.392 67.9574 15.012 67.6774 14.524C67.3974 14.036 67.2574 13.468 67.2574 12.82C67.2574 12.172 67.3974 11.608 67.6774 11.128C67.9574 10.64 68.3374 10.26 68.8174 9.988C69.3054 9.716 69.8574 9.58 70.4734 9.58C71.0094 9.58 71.4934 9.7 71.9254 9.94C72.3574 10.18 72.7014 10.54 72.9574 11.02C73.2214 11.5 73.3534 12.1 73.3534 12.82C73.3534 13.54 73.2254 14.14 72.9694 14.62C72.7214 15.1 72.3814 15.464 71.9494 15.712C71.5174 15.952 71.0254 16.072 70.4734 16.072ZM70.5694 15.064C70.9694 15.064 71.3294 14.972 71.6494 14.788C71.9774 14.604 72.2334 14.344 72.4174 14.008C72.6094 13.664 72.7054 13.268 72.7054 12.82C72.7054 12.364 72.6094 11.972 72.4174 11.644C72.2334 11.308 71.9774 11.048 71.6494 10.864C71.3294 10.68 70.9694 10.588 70.5694 10.588C70.1614 10.588 69.7974 10.68 69.4774 10.864C69.1574 11.048 68.9014 11.308 68.7094 11.644C68.5174 11.972 68.4214 12.364 68.4214 12.82C68.4214 13.268 68.5174 13.664 68.7094 14.008C68.9014 14.344 69.1574 14.604 69.4774 14.788C69.7974 14.972 70.1614 15.064 70.5694 15.064ZM72.7414 16V14.284L72.8134 12.808L72.6934 11.332V7.096H73.8454V16H72.7414ZM79.9731 16V14.656L79.9131 14.404V12.112C79.9131 11.624 79.7691 11.248 79.4811 10.984C79.2011 10.712 78.7771 10.576 78.2091 10.576C77.8331 10.576 77.4651 10.64 77.1051 10.768C76.7451 10.888 76.4411 11.052 76.1931 11.26L75.7131 10.396C76.0411 10.132 76.4331 9.932 76.8891 9.796C77.3531 9.652 77.8371 9.58 78.3411 9.58C79.2131 9.58 79.8851 9.792 80.3571 10.216C80.8291 10.64 81.0651 11.288 81.0651 12.16V16H79.9731ZM77.8851 16.072C77.4131 16.072 76.9971 15.992 76.6371 15.832C76.2851 15.672 76.0131 15.452 75.8211 15.172C75.6291 14.884 75.5331 14.56 75.5331 14.2C75.5331 13.856 75.6131 13.544 75.7731 13.264C75.9411 12.984 76.2091 12.76 76.5771 12.592C76.9531 12.424 77.4571 12.34 78.0891 12.34H80.1051V13.168H78.1371C77.5611 13.168 77.1731 13.264 76.9731 13.456C76.7731 13.648 76.6731 13.88 76.6731 14.152C76.6731 14.464 76.7971 14.716 77.0451 14.908C77.2931 15.092 77.6371 15.184 78.0771 15.184C78.5091 15.184 78.8851 15.088 79.2051 14.896C79.5331 14.704 79.7691 14.424 79.9131 14.056L80.1411 14.848C79.9891 15.224 79.7211 15.524 79.3371 15.748C78.9531 15.964 78.4691 16.072 77.8851 16.072ZM85.021 16.072C84.493 16.072 83.989 16 83.509 15.856C83.037 15.712 82.665 15.536 82.393 15.328L82.873 14.416C83.145 14.6 83.481 14.756 83.881 14.884C84.281 15.012 84.689 15.076 85.105 15.076C85.641 15.076 86.025 15 86.257 14.848C86.497 14.696 86.617 14.484 86.617 14.212C86.617 14.012 86.545 13.856 86.401 13.744C86.257 13.632 86.065 13.548 85.825 13.492C85.593 13.436 85.333 13.388 85.045 13.348C84.757 13.3 84.469 13.244 84.181 13.18C83.893 13.108 83.629 13.012 83.389 12.892C83.149 12.764 82.957 12.592 82.813 12.376C82.669 12.152 82.597 11.856 82.597 11.488C82.597 11.104 82.705 10.768 82.921 10.48C83.137 10.192 83.441 9.972 83.833 9.82C84.233 9.66 84.705 9.58 85.249 9.58C85.665 9.58 86.085 9.632 86.509 9.736C86.941 9.832 87.293 9.972 87.565 10.156L87.073 11.068C86.785 10.876 86.485 10.744 86.173 10.672C85.861 10.6 85.549 10.564 85.237 10.564C84.733 10.564 84.357 10.648 84.109 10.816C83.861 10.976 83.737 11.184 83.737 11.44C83.737 11.656 83.809 11.824 83.953 11.944C84.105 12.056 84.297 12.144 84.529 12.208C84.769 12.272 85.033 12.328 85.321 12.376C85.609 12.416 85.897 12.472 86.185 12.544C86.473 12.608 86.733 12.7 86.965 12.82C87.205 12.94 87.397 13.108 87.541 13.324C87.693 13.54 87.769 13.828 87.769 14.188C87.769 14.572 87.657 14.904 87.433 15.184C87.209 15.464 86.893 15.684 86.485 15.844C86.077 15.996 85.589 16.072 85.021 16.072Z" fill="#F3484F"/>
<defs>
<linearGradient id="paint0_linear_65_1550" x1="0.000833953" y1="11.4999" x2="21.0013" y2="11.4999" gradientUnits="userSpaceOnUse">
<stop stop-color="#28285B"/>
<stop offset="0.11" stop-color="#2E295B"/>
<stop offset="0.26" stop-color="#3E2B5A"/>
<stop offset="0.43" stop-color="#592E59"/>
<stop offset="0.61" stop-color="#7F3257"/>
<stop offset="0.8" stop-color="#B03855"/>
<stop offset="0.99" stop-color="#E83E53"/>
</linearGradient>
<clipPath id="clip0_65_1550">
<rect width="21" height="23" fill="white" transform="matrix(1 0 0 -1 0 23)"/>
</clipPath>
</defs>
</svg>
