<svg width="24" height="24" viewBox="0 0 24 24" fill="none" xmlns="http://www.w3.org/2000/svg">
<path fill-rule="evenodd" clip-rule="evenodd" d="M11.1667 11.1667H2V2H11.1667V11.1667ZM3.66667 9.5H9.5V3.66667H3.66667V9.5ZM22 11.1667H12.8333V2H22V11.1667ZM14.5 9.5H20.3333V3.66667H14.5V9.5ZM2 22H11.1667V12.8333H2V22ZM9.5 20.3333H3.66667V14.5H9.5V20.3333ZM20.3333 18.6667H22V12.8333H17V15.3333H15.3333V12.8333H13.6667V17H18.6667V14.5H20.3333V18.6667ZM22 22H13.6667V18.6667H15.3333V20.3333H22V22ZM7.83333 5.33333H5.33333V7.83333H7.83333V5.33333ZM16.1667 5.33333H18.6667V7.83333H16.1667V5.33333ZM7.83333 16.1667H5.33333V18.6667H7.83333V16.1667Z" fill="#2E2B5E"/>
</svg>
