<svg width="50" height="46" viewBox="0 0 50 46" fill="none" xmlns="http://www.w3.org/2000/svg">
<path fill-rule="evenodd" clip-rule="evenodd" d="M32.5 4.16667H29.1667C29.1667 1.83333 27.3333 0 25 0C22.6667 0 20.8333 1.83333 20.8333 4.16667H17.5C17 4.16667 16.6667 4.5 16.6667 5V19.1667C16.6667 19.6667 17 20 17.5 20H32.5C33 20 33.3333 19.6667 33.3333 19.1667V5C33.3333 4.5 33 4.16667 32.5 4.16667ZM25 1.66667C26.4167 1.66667 27.5 2.75 27.5 4.16667H22.5C22.5 2.75 23.5833 1.66667 25 1.66667Z" fill="#F3484F"/>
<path d="M1.65648 41V32.6H4.93248C5.66848 32.6 6.29648 32.716 6.81648 32.948C7.33648 33.18 7.73648 33.516 8.01648 33.956C8.29648 34.396 8.43648 34.92 8.43648 35.528C8.43648 36.136 8.29648 36.66 8.01648 37.1C7.73648 37.532 7.33648 37.868 6.81648 38.108C6.29648 38.34 5.66848 38.456 4.93248 38.456H2.31648L2.85648 37.892V41H1.65648ZM2.85648 38.012L2.31648 37.412H4.89648C5.66448 37.412 6.24448 37.248 6.63648 36.92C7.03648 36.592 7.23649 36.128 7.23649 35.528C7.23649 34.928 7.03648 34.464 6.63648 34.136C6.24448 33.808 5.66448 33.644 4.89648 33.644H2.31648L2.85648 33.044V38.012ZM12.84 41.072C12.16 41.072 11.56 40.932 11.04 40.652C10.528 40.372 10.128 39.988 9.84002 39.5C9.56002 39.012 9.42002 38.452 9.42002 37.82C9.42002 37.188 9.55602 36.628 9.82802 36.14C10.108 35.652 10.488 35.272 10.968 35C11.456 34.72 12.004 34.58 12.612 34.58C13.228 34.58 13.772 34.716 14.244 34.988C14.716 35.26 15.084 35.644 15.348 36.14C15.62 36.628 15.756 37.2 15.756 37.856C15.756 37.904 15.752 37.96 15.744 38.024C15.744 38.088 15.74 38.148 15.732 38.204H10.32V37.376H15.132L14.664 37.664C14.672 37.256 14.588 36.892 14.412 36.572C14.236 36.252 13.992 36.004 13.68 35.828C13.376 35.644 13.02 35.552 12.612 35.552C12.212 35.552 11.856 35.644 11.544 35.828C11.232 36.004 10.988 36.256 10.812 36.584C10.636 36.904 10.548 37.272 10.548 37.688V37.88C10.548 38.304 10.644 38.684 10.836 39.02C11.036 39.348 11.312 39.604 11.664 39.788C12.016 39.972 12.42 40.064 12.876 40.064C13.252 40.064 13.592 40 13.896 39.872C14.208 39.744 14.48 39.552 14.712 39.296L15.348 40.04C15.06 40.376 14.7 40.632 14.268 40.808C13.844 40.984 13.368 41.072 12.84 41.072ZM19.9837 41.072C19.3677 41.072 18.8157 40.936 18.3277 40.664C17.8477 40.392 17.4677 40.012 17.1877 39.524C16.9077 39.036 16.7677 38.468 16.7677 37.82C16.7677 37.172 16.9077 36.608 17.1877 36.128C17.4677 35.64 17.8477 35.26 18.3277 34.988C18.8157 34.716 19.3677 34.58 19.9837 34.58C20.5197 34.58 21.0037 34.7 21.4357 34.94C21.8677 35.18 22.2117 35.54 22.4677 36.02C22.7317 36.5 22.8637 37.1 22.8637 37.82C22.8637 38.54 22.7357 39.14 22.4797 39.62C22.2317 40.1 21.8917 40.464 21.4597 40.712C21.0277 40.952 20.5357 41.072 19.9837 41.072ZM20.0797 40.064C20.4797 40.064 20.8397 39.972 21.1597 39.788C21.4877 39.604 21.7437 39.344 21.9277 39.008C22.1197 38.664 22.2157 38.268 22.2157 37.82C22.2157 37.364 22.1197 36.972 21.9277 36.644C21.7437 36.308 21.4877 36.048 21.1597 35.864C20.8397 35.68 20.4797 35.588 20.0797 35.588C19.6717 35.588 19.3077 35.68 18.9877 35.864C18.6677 36.048 18.4117 36.308 18.2197 36.644C18.0277 36.972 17.9317 37.364 17.9317 37.82C17.9317 38.268 18.0277 38.664 18.2197 39.008C18.4117 39.344 18.6677 39.604 18.9877 39.788C19.3077 39.972 19.6717 40.064 20.0797 40.064ZM22.2517 41V39.284L22.3237 37.808L22.2037 36.332V32.096H23.3557V41H22.2517ZM25.5354 41V34.64H26.6874V41H25.5354ZM26.1114 33.416C25.8874 33.416 25.6994 33.344 25.5474 33.2C25.4034 33.056 25.3314 32.88 25.3314 32.672C25.3314 32.456 25.4034 32.276 25.5474 32.132C25.6994 31.988 25.8874 31.916 26.1114 31.916C26.3354 31.916 26.5194 31.988 26.6634 32.132C26.8154 32.268 26.8914 32.44 26.8914 32.648C26.8914 32.864 26.8194 33.048 26.6754 33.2C26.5314 33.344 26.3434 33.416 26.1114 33.416ZM31.5149 41.072C30.8989 41.072 30.3469 40.936 29.8589 40.664C29.3789 40.392 28.9989 40.012 28.7189 39.524C28.4389 39.036 28.2989 38.468 28.2989 37.82C28.2989 37.172 28.4389 36.608 28.7189 36.128C28.9989 35.64 29.3789 35.26 29.8589 34.988C30.3469 34.716 30.8989 34.58 31.5149 34.58C32.0509 34.58 32.5349 34.7 32.9669 34.94C33.3989 35.18 33.7429 35.54 33.9989 36.02C34.2629 36.5 34.3949 37.1 34.3949 37.82C34.3949 38.54 34.2669 39.14 34.0109 39.62C33.7629 40.1 33.4229 40.464 32.9909 40.712C32.5589 40.952 32.0669 41.072 31.5149 41.072ZM31.6109 40.064C32.0109 40.064 32.3709 39.972 32.6909 39.788C33.0189 39.604 33.2749 39.344 33.4589 39.008C33.6509 38.664 33.7469 38.268 33.7469 37.82C33.7469 37.364 33.6509 36.972 33.4589 36.644C33.2749 36.308 33.0189 36.048 32.6909 35.864C32.3709 35.68 32.0109 35.588 31.6109 35.588C31.2029 35.588 30.8389 35.68 30.5189 35.864C30.1989 36.048 29.9429 36.308 29.7509 36.644C29.5589 36.972 29.4629 37.364 29.4629 37.82C29.4629 38.268 29.5589 38.664 29.7509 39.008C29.9429 39.344 30.1989 39.604 30.5189 39.788C30.8389 39.972 31.2029 40.064 31.6109 40.064ZM33.7829 41V39.284L33.8549 37.808L33.7349 36.332V32.096H34.8869V41H33.7829ZM39.7906 41.072C39.1506 41.072 38.5826 40.932 38.0866 40.652C37.5906 40.372 37.1986 39.988 36.9106 39.5C36.6226 39.004 36.4786 38.444 36.4786 37.82C36.4786 37.188 36.6226 36.628 36.9106 36.14C37.1986 35.652 37.5906 35.272 38.0866 35C38.5826 34.72 39.1506 34.58 39.7906 34.58C40.4226 34.58 40.9866 34.72 41.4826 35C41.9866 35.272 42.3786 35.652 42.6586 36.14C42.9466 36.62 43.0906 37.18 43.0906 37.82C43.0906 38.452 42.9466 39.012 42.6586 39.5C42.3786 39.988 41.9866 40.372 41.4826 40.652C40.9866 40.932 40.4226 41.072 39.7906 41.072ZM39.7906 40.064C40.1986 40.064 40.5626 39.972 40.8826 39.788C41.2106 39.604 41.4666 39.344 41.6506 39.008C41.8346 38.664 41.9266 38.268 41.9266 37.82C41.9266 37.364 41.8346 36.972 41.6506 36.644C41.4666 36.308 41.2106 36.048 40.8826 35.864C40.5626 35.68 40.1986 35.588 39.7906 35.588C39.3826 35.588 39.0186 35.68 38.6986 35.864C38.3786 36.048 38.1226 36.308 37.9306 36.644C37.7386 36.972 37.6426 37.364 37.6426 37.82C37.6426 38.268 37.7386 38.664 37.9306 39.008C38.1226 39.344 38.3786 39.604 38.6986 39.788C39.0186 39.972 39.3826 40.064 39.7906 40.064ZM46.5078 41.072C45.9798 41.072 45.4758 41 44.9958 40.856C44.5238 40.712 44.1518 40.536 43.8798 40.328L44.3598 39.416C44.6318 39.6 44.9678 39.756 45.3678 39.884C45.7678 40.012 46.1758 40.076 46.5918 40.076C47.1278 40.076 47.5118 40 47.7438 39.848C47.9838 39.696 48.1038 39.484 48.1038 39.212C48.1038 39.012 48.0318 38.856 47.8878 38.744C47.7438 38.632 47.5518 38.548 47.3118 38.492C47.0798 38.436 46.8198 38.388 46.5318 38.348C46.2438 38.3 45.9558 38.244 45.6678 38.18C45.3798 38.108 45.1158 38.012 44.8758 37.892C44.6358 37.764 44.4438 37.592 44.2998 37.376C44.1558 37.152 44.0838 36.856 44.0838 36.488C44.0838 36.104 44.1918 35.768 44.4078 35.48C44.6238 35.192 44.9278 34.972 45.3198 34.82C45.7198 34.66 46.1918 34.58 46.7358 34.58C47.1518 34.58 47.5718 34.632 47.9958 34.736C48.4278 34.832 48.7798 34.972 49.0518 35.156L48.5598 36.068C48.2718 35.876 47.9718 35.744 47.6598 35.672C47.3478 35.6 47.0358 35.564 46.7238 35.564C46.2198 35.564 45.8438 35.648 45.5958 35.816C45.3478 35.976 45.2238 36.184 45.2238 36.44C45.2238 36.656 45.2958 36.824 45.4398 36.944C45.5918 37.056 45.7838 37.144 46.0158 37.208C46.2558 37.272 46.5198 37.328 46.8078 37.376C47.0958 37.416 47.3838 37.472 47.6718 37.544C47.9598 37.608 48.2198 37.7 48.4518 37.82C48.6918 37.94 48.8838 38.108 49.0278 38.324C49.1798 38.54 49.2558 38.828 49.2558 39.188C49.2558 39.572 49.1438 39.904 48.9198 40.184C48.6958 40.464 48.3798 40.684 47.9718 40.844C47.5638 40.996 47.0758 41.072 46.5078 41.072Z" fill="#F3484F"/>
</svg>
