<svg width="32" height="46" viewBox="0 0 32 46" fill="none" xmlns="http://www.w3.org/2000/svg">
<path fill-rule="evenodd" clip-rule="evenodd" d="M18.8842 11.6858C18.02 12.1933 17.0483 12.5 16 12.5C14.9517 12.5 13.98 12.1933 13.1158 11.6858C10.0783 11.885 7.66666 14.4133 7.66666 17.5V18.9417L8.24582 19.1275C8.35749 19.1625 11.0317 20 16 20C20.9683 20 23.6425 19.1625 23.7542 19.1275L24.3333 18.9417V17.5C24.3333 14.4133 21.9217 11.885 18.8842 11.6858Z" fill="#F3484F"/>
<path fill-rule="evenodd" clip-rule="evenodd" d="M16 10.8333C18.8158 10.8333 21 7.6975 21 5C21 2.2425 18.7575 0 16 0C13.2425 0 11 2.2425 11 5C11 7.6975 13.1842 10.8333 16 10.8333Z" fill="#F3484F"/>
<path d="M1.39867 41V32.6H4.67467C5.41067 32.6 6.03867 32.716 6.55867 32.948C7.07867 33.18 7.47867 33.516 7.75867 33.956C8.03867 34.396 8.17867 34.92 8.17867 35.528C8.17867 36.136 8.03867 36.66 7.75867 37.1C7.47867 37.532 7.07867 37.868 6.55867 38.108C6.03867 38.34 5.41067 38.456 4.67467 38.456H2.05867L2.59867 37.892V41H1.39867ZM2.59867 38.012L2.05867 37.412H4.63867C5.40667 37.412 5.98667 37.248 6.37867 36.92C6.77867 36.592 6.97867 36.128 6.97867 35.528C6.97867 34.928 6.77867 34.464 6.37867 34.136C5.98667 33.808 5.40667 33.644 4.63867 33.644H2.05867L2.59867 33.044V38.012ZM12.5822 41.072C11.9022 41.072 11.3022 40.932 10.7822 40.652C10.2702 40.372 9.8702 39.988 9.5822 39.5C9.3022 39.012 9.1622 38.452 9.1622 37.82C9.1622 37.188 9.2982 36.628 9.5702 36.14C9.8502 35.652 10.2302 35.272 10.7102 35C11.1982 34.72 11.7462 34.58 12.3542 34.58C12.9702 34.58 13.5142 34.716 13.9862 34.988C14.4582 35.26 14.8262 35.644 15.0902 36.14C15.3622 36.628 15.4982 37.2 15.4982 37.856C15.4982 37.904 15.4942 37.96 15.4862 38.024C15.4862 38.088 15.4822 38.148 15.4742 38.204H10.0622V37.376H14.8742L14.4062 37.664C14.4142 37.256 14.3302 36.892 14.1542 36.572C13.9782 36.252 13.7342 36.004 13.4222 35.828C13.1182 35.644 12.7622 35.552 12.3542 35.552C11.9542 35.552 11.5982 35.644 11.2862 35.828C10.9742 36.004 10.7302 36.256 10.5542 36.584C10.3782 36.904 10.2902 37.272 10.2902 37.688V37.88C10.2902 38.304 10.3862 38.684 10.5782 39.02C10.7782 39.348 11.0542 39.604 11.4062 39.788C11.7582 39.972 12.1622 40.064 12.6182 40.064C12.9942 40.064 13.3342 40 13.6382 39.872C13.9502 39.744 14.2222 39.552 14.4542 39.296L15.0902 40.04C14.8022 40.376 14.4422 40.632 14.0102 40.808C13.5862 40.984 13.1102 41.072 12.5822 41.072ZM17.0979 41V34.64H18.2019V36.368L18.0939 35.936C18.2699 35.496 18.5659 35.16 18.9819 34.928C19.3979 34.696 19.9099 34.58 20.5179 34.58V35.696C20.4699 35.688 20.4219 35.684 20.3739 35.684C20.3339 35.684 20.2939 35.684 20.2539 35.684C19.6379 35.684 19.1499 35.868 18.7899 36.236C18.4299 36.604 18.2499 37.136 18.2499 37.832V41H17.0979ZM22.1877 41V34.076C22.1877 33.452 22.3677 32.956 22.7277 32.588C23.0957 32.212 23.6157 32.024 24.2877 32.024C24.5357 32.024 24.7717 32.056 24.9957 32.12C25.2277 32.176 25.4237 32.268 25.5837 32.396L25.2357 33.272C25.1157 33.176 24.9797 33.104 24.8277 33.056C24.6757 33 24.5157 32.972 24.3477 32.972C24.0117 32.972 23.7557 33.068 23.5797 33.26C23.4037 33.444 23.3157 33.72 23.3157 34.088V34.94L23.3397 35.468V41H22.1877ZM21.1077 35.588V34.64H25.1637V35.588H21.1077ZM26.2502 41V34.64H27.4022V41H26.2502ZM26.8262 33.416C26.6022 33.416 26.4142 33.344 26.2622 33.2C26.1182 33.056 26.0462 32.88 26.0462 32.672C26.0462 32.456 26.1182 32.276 26.2622 32.132C26.4142 31.988 26.6022 31.916 26.8262 31.916C27.0502 31.916 27.2342 31.988 27.3782 32.132C27.5302 32.268 27.6062 32.44 27.6062 32.648C27.6062 32.864 27.5342 33.048 27.3902 33.2C27.2462 33.344 27.0582 33.416 26.8262 33.416ZM29.6018 41V32.096H30.7538V41H29.6018Z" fill="#F3484F"/>
</svg>
