<svg width="38" height="45" viewBox="0 0 38 45" fill="none" xmlns="http://www.w3.org/2000/svg">
<path d="M1.63891 40V31.6H5.40691C6.37491 31.6 7.11891 31.796 7.63891 32.188C8.15891 32.572 8.41891 33.1 8.41891 33.772C8.41891 34.228 8.31491 34.612 8.10691 34.924C7.90691 35.236 7.63491 35.476 7.29091 35.644C6.94691 35.812 6.57491 35.896 6.17491 35.896L6.39091 35.536C6.87091 35.536 7.29491 35.62 7.66291 35.788C8.03091 35.956 8.32291 36.204 8.53891 36.532C8.75491 36.852 8.86291 37.252 8.86291 37.732C8.86291 38.452 8.59091 39.012 8.04691 39.412C7.51091 39.804 6.71091 40 5.64691 40H1.63891ZM2.83891 39.028H5.59891C6.26291 39.028 6.77091 38.916 7.12291 38.692C7.47491 38.468 7.65091 38.116 7.65091 37.636C7.65091 37.148 7.47491 36.792 7.12291 36.568C6.77091 36.344 6.26291 36.232 5.59891 36.232H2.73091V35.26H5.29891C5.90691 35.26 6.37891 35.148 6.71491 34.924C7.05091 34.7 7.21891 34.364 7.21891 33.916C7.21891 33.468 7.05091 33.132 6.71491 32.908C6.37891 32.684 5.90691 32.572 5.29891 32.572H2.83891V39.028ZM13.2289 40.072C12.6849 40.072 12.2049 39.972 11.7889 39.772C11.3809 39.572 11.0609 39.268 10.8289 38.86C10.6049 38.444 10.4929 37.924 10.4929 37.3V33.64H11.6449V37.168C11.6449 37.792 11.7929 38.26 12.0889 38.572C12.3929 38.884 12.8169 39.04 13.3609 39.04C13.7609 39.04 14.1089 38.96 14.4049 38.8C14.7009 38.632 14.9289 38.392 15.0889 38.08C15.2489 37.76 15.3289 37.376 15.3289 36.928V33.64H16.4809V40H15.3889V38.284L15.5689 38.74C15.3609 39.164 15.0489 39.492 14.6329 39.724C14.2169 39.956 13.7489 40.072 13.2289 40.072ZM20.498 40.072C19.97 40.072 19.466 40 18.986 39.856C18.514 39.712 18.142 39.536 17.87 39.328L18.35 38.416C18.622 38.6 18.958 38.756 19.358 38.884C19.758 39.012 20.166 39.076 20.582 39.076C21.118 39.076 21.502 39 21.734 38.848C21.974 38.696 22.094 38.484 22.094 38.212C22.094 38.012 22.022 37.856 21.878 37.744C21.734 37.632 21.542 37.548 21.302 37.492C21.07 37.436 20.81 37.388 20.522 37.348C20.234 37.3 19.946 37.244 19.658 37.18C19.37 37.108 19.106 37.012 18.866 36.892C18.626 36.764 18.434 36.592 18.29 36.376C18.146 36.152 18.074 35.856 18.074 35.488C18.074 35.104 18.182 34.768 18.398 34.48C18.614 34.192 18.918 33.972 19.31 33.82C19.71 33.66 20.182 33.58 20.726 33.58C21.142 33.58 21.562 33.632 21.986 33.736C22.418 33.832 22.77 33.972 23.042 34.156L22.55 35.068C22.262 34.876 21.962 34.744 21.65 34.672C21.338 34.6 21.026 34.564 20.714 34.564C20.21 34.564 19.834 34.648 19.586 34.816C19.338 34.976 19.214 35.184 19.214 35.44C19.214 35.656 19.286 35.824 19.43 35.944C19.582 36.056 19.774 36.144 20.006 36.208C20.246 36.272 20.51 36.328 20.798 36.376C21.086 36.416 21.374 36.472 21.662 36.544C21.95 36.608 22.21 36.7 22.442 36.82C22.682 36.94 22.874 37.108 23.018 37.324C23.17 37.54 23.246 37.828 23.246 38.188C23.246 38.572 23.134 38.904 22.91 39.184C22.686 39.464 22.37 39.684 21.962 39.844C21.554 39.996 21.066 40.072 20.498 40.072ZM27.4578 40.072C26.8098 40.072 26.2298 39.932 25.7178 39.652C25.2138 39.372 24.8178 38.988 24.5298 38.5C24.2418 38.012 24.0978 37.452 24.0978 36.82C24.0978 36.188 24.2418 35.628 24.5298 35.14C24.8178 34.652 25.2138 34.272 25.7178 34C26.2298 33.72 26.8098 33.58 27.4578 33.58C28.0338 33.58 28.5458 33.696 28.9938 33.928C29.4498 34.152 29.8018 34.488 30.0498 34.936L29.1738 35.5C28.9658 35.188 28.7098 34.96 28.4058 34.816C28.1098 34.664 27.7898 34.588 27.4458 34.588C27.0298 34.588 26.6578 34.68 26.3298 34.864C26.0018 35.048 25.7418 35.308 25.5498 35.644C25.3578 35.972 25.2618 36.364 25.2618 36.82C25.2618 37.276 25.3578 37.672 25.5498 38.008C25.7418 38.344 26.0018 38.604 26.3298 38.788C26.6578 38.972 27.0298 39.064 27.4458 39.064C27.7898 39.064 28.1098 38.992 28.4058 38.848C28.7098 38.696 28.9658 38.464 29.1738 38.152L30.0498 38.704C29.8018 39.144 29.4498 39.484 28.9938 39.724C28.5458 39.956 28.0338 40.072 27.4578 40.072ZM35.4892 40V38.656L35.4292 38.404V36.112C35.4292 35.624 35.2852 35.248 34.9972 34.984C34.7172 34.712 34.2932 34.576 33.7252 34.576C33.3492 34.576 32.9812 34.64 32.6212 34.768C32.2612 34.888 31.9572 35.052 31.7092 35.26L31.2292 34.396C31.5572 34.132 31.9492 33.932 32.4052 33.796C32.8692 33.652 33.3532 33.58 33.8572 33.58C34.7292 33.58 35.4012 33.792 35.8732 34.216C36.3452 34.64 36.5812 35.288 36.5812 36.16V40H35.4892ZM33.4012 40.072C32.9292 40.072 32.5132 39.992 32.1532 39.832C31.8012 39.672 31.5292 39.452 31.3372 39.172C31.1452 38.884 31.0492 38.56 31.0492 38.2C31.0492 37.856 31.1292 37.544 31.2892 37.264C31.4572 36.984 31.7252 36.76 32.0932 36.592C32.4692 36.424 32.9732 36.34 33.6052 36.34H35.6212V37.168H33.6532C33.0772 37.168 32.6892 37.264 32.4892 37.456C32.2892 37.648 32.1892 37.88 32.1892 38.152C32.1892 38.464 32.3132 38.716 32.5612 38.908C32.8092 39.092 33.1532 39.184 33.5932 39.184C34.0252 39.184 34.4012 39.088 34.7212 38.896C35.0492 38.704 35.2852 38.424 35.4292 38.056L35.6572 38.848C35.5052 39.224 35.2372 39.524 34.8532 39.748C34.4692 39.964 33.9852 40.072 33.4012 40.072Z" fill="#F3484F"/>
<path fill-rule="evenodd" clip-rule="evenodd" d="M28.3205 17.6968L22.5516 11.8187L22.4442 11.9349C24.7057 8.70417 24.1268 4.24105 21.1191 1.71984C18.1114 -0.801368 13.7014 -0.520195 11.0257 2.36338C8.34995 5.24696 8.32162 9.7488 10.9608 12.6671C13.6001 15.5854 18.0061 15.9242 21.0453 13.4425L21.0242 13.4651L26.7497 19.2972C27.1857 19.7262 27.8787 19.7201 28.3073 19.2834C28.7359 18.8467 28.7419 18.1407 28.3208 17.6965L28.3205 17.6968ZM16.4238 13.2142C13.3556 13.2142 10.8683 10.6799 10.8683 7.55381C10.8683 4.42767 13.3556 1.89343 16.4238 1.89343C19.4921 1.89343 21.9794 4.42767 21.9794 7.55381C21.9759 10.6785 19.4906 13.2107 16.4238 13.2142V13.2142Z" fill="#F3484F"/>
</svg>
