<svg width="20" height="20" viewBox="0 0 20 20" xmlns="http://www.w3.org/2000/svg">
<g clip-path="url(#clip0_65_392)">
<path fill-rule="evenodd" clip-rule="evenodd" d="M19.6744 18.0676L13.9056 12.1894L13.7981 12.3057C16.0597 9.0749 15.4807 4.61177 12.473 2.09057C9.46534 -0.430641 5.0554 -0.149467 2.37966 2.73411C-0.296077 5.61769 -0.324411 10.1195 2.31481 13.0378C4.95404 15.9561 9.36007 16.2949 12.3993 13.8132L12.3781 13.8359L18.1037 19.6679C18.5397 20.097 19.2327 20.0908 19.6613 19.6541C20.0899 19.2175 20.0959 18.5114 19.6748 18.0672L19.6744 18.0676ZM7.77778 13.5849C4.70953 13.5849 2.22222 11.0507 2.22222 7.92454C2.22222 4.7984 4.70953 2.26416 7.77778 2.26416C10.846 2.26416 13.3333 4.7984 13.3333 7.92454C13.3299 11.0492 10.8446 13.5814 7.77778 13.5849Z" />
</g>
<defs>
<clipPath id="clip0_65_392">
<rect width="20" height="20" fill="white"/>
</clipPath>
</defs>
</svg>
