<svg width="61" height="65" viewBox="0 0 61 65" fill="none" xmlns="http://www.w3.org/2000/svg">
<path d="M34.2812 0.000694275C43.4555 0.0181732 52.2473 3.47031 58.7261 9.59903C58.9364 9.78532 59.1049 10.0096 59.2216 10.2585C59.3382 10.5074 59.4007 10.7759 59.4053 11.0481C59.4098 11.3202 59.3563 11.5905 59.2481 11.8427C59.1398 12.095 58.9789 12.3242 58.7749 12.5166C58.5709 12.7091 58.328 12.8609 58.0606 12.9631C57.7933 13.0653 57.5069 13.1157 57.2184 13.1114C56.93 13.1071 56.6454 13.0482 56.3816 12.9381C56.1178 12.828 55.8801 12.6691 55.6826 12.4706C50.0035 7.10021 42.2975 4.07586 34.257 4.06168C26.1513 4.0201 18.5899 6.92081 12.9613 12.2294C7.33274 17.538 4.25619 24.6765 4.30467 32.3244C4.32851 39.9086 7.53224 47.1758 13.2161 52.5386C18.9 57.9015 26.6022 60.9243 34.6404 60.9468C42.6932 60.9884 50.2083 58.1251 55.8237 52.881C56.4225 52.3096 56.7562 51.5372 56.7515 50.7337C56.7467 49.9302 56.4039 49.1614 55.7983 48.5964C55.1928 48.0314 54.3742 47.7166 53.5226 47.721C52.671 47.7255 51.8562 48.049 51.2573 48.6203C51.202 48.6723 51.1439 48.7216 51.0832 48.768C46.728 52.6192 40.9639 54.7335 34.9953 54.6692C28.7435 54.65 22.7537 52.2981 18.3333 48.127C13.9129 43.9558 11.4208 38.3041 11.401 32.4055C11.3635 29.4983 11.9426 26.6135 13.1044 23.9207C14.2661 21.2278 15.987 18.7815 18.1658 16.7256C20.3446 14.6697 22.9372 13.0457 25.7911 11.9493C28.645 10.8529 31.7025 10.3062 34.7837 10.3414C41.0369 10.3537 47.0292 12.7073 51.4447 16.8851C52.1566 17.5343 52.7245 18.3107 53.115 19.1691C53.5056 20.0275 53.7111 20.9507 53.7196 21.8849C53.7281 22.819 53.5393 23.7454 53.1643 24.61C52.7893 25.4746 52.2356 26.26 51.5355 26.9206C50.8354 27.5812 50.003 28.1036 49.0866 28.4574C48.1703 28.8112 47.1884 28.9893 46.1984 28.9813C45.2083 28.9733 44.2299 28.7794 43.3201 28.4109C42.4103 28.0424 41.5874 27.5066 40.8993 26.8349C40.8575 26.7933 40.8178 26.7496 40.7781 26.7059C40.7384 26.6623 40.6856 26.6311 40.6415 26.5916C39.4371 25.4366 37.8963 24.6453 36.2145 24.3179C34.5327 23.9905 32.7857 24.1418 31.1952 24.7527C29.6047 25.3635 28.2423 26.4063 27.2809 27.7489C26.3196 29.0914 25.8025 30.6731 25.7954 32.2934C25.7883 33.9136 26.2914 35.4993 27.2409 36.8493C28.1904 38.1993 29.5436 39.2528 31.1286 39.8761C32.7137 40.4994 34.4593 40.6644 36.1439 40.3502C37.8286 40.036 39.3763 39.2567 40.5908 38.1112C40.9985 37.75 41.5393 37.5527 42.0985 37.561C42.6577 37.5694 43.1916 37.7827 43.587 38.1558C43.9825 38.529 44.2086 39.0327 44.2174 39.5603C44.2262 40.0879 44.0171 40.5981 43.6343 40.9828C41.2131 43.274 37.9275 44.5655 34.4984 44.5741C31.0693 44.5827 27.7765 43.3076 25.3425 41.0286C20.3111 36.2835 20.3354 28.5399 25.3931 23.7699C30.4509 18.9998 38.658 18.9749 43.685 23.7221C43.729 23.7636 43.7687 23.8052 43.8084 23.8489C43.8553 23.8855 43.9002 23.9244 43.9428 23.9653C44.2326 24.2539 44.5807 24.4848 44.9666 24.6444C45.3525 24.8039 45.7684 24.8889 46.1896 24.8942C46.6109 24.8996 47.0291 24.8253 47.4194 24.6756C47.8098 24.526 48.1643 24.3041 48.4623 24.023C48.7602 23.7419 48.9954 23.4073 49.154 23.039C49.3126 22.6708 49.3914 22.2762 49.3857 21.8787C49.38 21.4812 49.2899 21.0888 49.1208 20.7247C48.9517 20.3606 48.707 20.0322 48.4012 19.7588C44.7862 16.3381 39.8792 14.4121 34.7594 14.4044C32.2487 14.3737 29.7568 14.8178 27.4309 15.7105C25.105 16.6032 22.9922 17.9265 21.2172 19.6022C19.4422 21.278 18.0409 23.2722 17.0961 25.4672C16.1513 27.6623 15.6821 30.0137 15.7161 32.3826C15.7295 37.2121 17.7686 41.8402 21.3878 45.2554C25.007 48.6706 29.9119 50.595 35.0305 50.6082C37.5422 50.6375 40.0347 50.1928 42.3615 49.3C44.6883 48.4073 46.8025 47.0846 48.5797 45.4098C48.7169 45.2812 48.8718 45.1707 49.0403 45.0813C50.5344 44.051 52.3786 43.5767 54.2201 43.7489C56.0617 43.9211 57.7713 44.7278 59.022 46.0147C60.2728 47.3016 60.9768 48.9783 60.9994 50.7242C61.0221 52.4701 60.3618 54.1627 59.1449 55.4781C59.097 55.5351 59.0455 55.5893 58.9906 55.6403L58.898 55.7276L58.854 55.7692L58.8077 55.8108C52.3791 61.7848 43.804 65.0473 34.6272 64.9995C25.4555 64.9737 16.6669 61.5259 10.1796 55.4085C3.69237 49.2912 0.0331383 41.0009 0.000586867 32.3473C-0.0523051 23.6139 3.47162 15.442 9.91784 9.3599C16.364 3.27777 25.0185 -0.0554428 34.2812 0.000694275Z" fill="url(#paint0_linear_7_3668)"/>
<defs>
<linearGradient id="paint0_linear_7_3668" x1="0.00313217" y1="32.5044" x2="61.0155" y2="32.5044" gradientUnits="userSpaceOnUse">
<stop stop-color="#28285B"/>
<stop offset="0.11" stop-color="#2E295B"/>
<stop offset="0.26" stop-color="#3E2B5A"/>
<stop offset="0.43" stop-color="#592E59"/>
<stop offset="0.61" stop-color="#7F3257"/>
<stop offset="0.8" stop-color="#B03855"/>
<stop offset="0.99" stop-color="#E83E53"/>
</linearGradient>
</defs>
</svg>
